<svg width="25" height="24" viewBox="0 0 25 24" fill="none" xmlns="http://www.w3.org/2000/svg">
<path d="M21.5 3.6V20.4C21.5 20.7314 21.2314 21 20.9 21H4.1C3.76863 21 3.5 20.7314 3.5 20.4V3.6C3.5 3.26863 3.76863 3 4.1 3H20.9C21.2314 3 21.5 3.26863 21.5 3.6Z" stroke="#131A1E" stroke-width="1.5" stroke-linecap="round" stroke-linejoin="round"/>
<path d="M3.5 16L10.5 13L21.5 18" stroke="#131A1E" stroke-width="1.5" stroke-linecap="round" stroke-linejoin="round"/>
<path d="M16.5 10C15.3954 10 14.5 9.10457 14.5 8C14.5 6.89543 15.3954 6 16.5 6C17.6046 6 18.5 6.89543 18.5 8C18.5 9.10457 17.6046 10 16.5 10Z" stroke="#131A1E" stroke-width="1.5" stroke-linecap="round" stroke-linejoin="round"/>
</svg>
